HIERARCHY
ROOT root
{
	OFFSET 0.000000 0.000000 0.000000
	CHANNELS 6 Xposition Yposition Zposition Zrotation Yrotation Xrotation
	JOINT lhip
	{
		OFFSET 0.058581 -0.082280 -0.017664
		CHANNELS 3 Zrotation Yrotation Xrotation
		JOINT lknee
		{
			OFFSET 0.043451 -0.386469 0.008037
			CHANNELS 3 Zrotation Yrotation Xrotation
			JOINT lankle
			{
				OFFSET -0.014790 -0.426874 -0.037428
				CHANNELS 3 Zrotation Yrotation Xrotation
				JOINT ltoe
				{
					OFFSET 0.041054 -0.060286 0.122042
					CHANNELS 3 Zrotation Yrotation Xrotation
					End Site
					{
						OFFSET 0.000000 0.000000 0.000000
					}
				}
			}
		}
	}
	JOINT rhip
	{
		OFFSET -0.060310 -0.090513 -0.013543
		CHANNELS 3 Zrotation Yrotation Xrotation
		JOINT rknee
		{
			OFFSET -0.043257 -0.383688 -0.004843
			CHANNELS 3 Zrotation Yrotation Xrotation
			JOINT rankle
			{
				OFFSET 0.019056 -0.420046 -0.034562
				CHANNELS 3 Zrotation Yrotation Xrotation
				JOINT rtoe
				{
					OFFSET -0.034840 -0.062106 0.130323
					CHANNELS 3 Zrotation Yrotation Xrotation
					End Site
					{
						OFFSET 0.000000 0.000000 0.000000
					}
				}
			}
		}
	}
	JOINT lowerback
	{
		OFFSET 0.004439 0.124404 -0.038385
		CHANNELS 3 Zrotation Yrotation Xrotation
		JOINT upperback
		{
			OFFSET 0.004488 0.137956 0.026820
			CHANNELS 3 Zrotation Yrotation Xrotation
			JOINT chest
			{
				OFFSET -0.002265 0.056032 0.002855
				CHANNELS 3 Zrotation Yrotation Xrotation
				JOINT lowerneck
				{
					OFFSET -0.013390 0.211636 -0.033468
					CHANNELS 3 Zrotation Yrotation Xrotation
					JOINT upperneck
					{
						OFFSET 0.010113 0.088937 0.050410
						CHANNELS 3 Zrotation Yrotation Xrotation
						End Site
						{
							OFFSET 0.000000 0.000000 0.000000
						}
					}
				}
				JOINT lclavicle
				{
					OFFSET 0.071702 0.114000 -0.018898
					CHANNELS 3 Zrotation Yrotation Xrotation
					JOINT lshoulder
					{
						OFFSET 0.122921 0.045205 -0.019046
						CHANNELS 3 Zrotation Yrotation Xrotation
						JOINT lelbow
						{
							OFFSET 0.255332 -0.015649 -0.022946
							CHANNELS 3 Zrotation Yrotation Xrotation
							JOINT lwrist
							{
								OFFSET 0.265709 0.012698 -0.007375
								CHANNELS 3 Zrotation Yrotation Xrotation
								End Site
								{
									OFFSET 0.000000 0.000000 0.000000
								}
							}
						}
					}
				}
				JOINT rclavicle
				{
					OFFSET -0.082954 0.112472 -0.023707
					CHANNELS 3 Zrotation Yrotation Xrotation
					JOINT rshoulder
					{
						OFFSET -0.113228 0.046853 -0.008472
						CHANNELS 3 Zrotation Yrotation Xrotation
						JOINT relbow
						{
							OFFSET -0.260127 -0.014369 -0.031269
							CHANNELS 3 Zrotation Yrotation Xrotation
							JOINT rwrist
							{
								OFFSET -0.269108 0.006794 -0.006027
								CHANNELS 3 Zrotation Yrotation Xrotation
								End Site
								{
									OFFSET 0.000000 0.000000 0.000000
								}
							}
						}
					}
				}
			}
		}
	}
}
MOTION
Frames: 7
Frame Time: 0.033333
-0.051877 0.540265 0.919412 -2.448620 -1.108560 91.697817 17.262749 10.269668 -22.756189 -7.051252 2.255136 37.529977 -3.288050 1.675099 -19.323032 0.000000 -0.000000 0.000000 -16.290230 -12.285571 -28.671585 -0.695196 -10.134982 44.926656 7.054134 -4.158800 -18.288698 0.000000 -0.000000 0.000000 0.296419 0.864663 33.638137 3.290031 -1.777071 0.544731 2.107134 -1.983577 -2.505590 -1.993715 2.564927 -16.537178 -2.334118 -6.401065 4.183738 -30.824044 -9.812496 7.450437 -46.594299 -12.461588 16.939923 -13.421453 -66.053524 28.160426 6.645754 -17.341046 -15.392638 31.756586 13.468561 5.354483 37.923029 11.303475 7.078074 -25.060684 44.319323 -37.652841 -6.688579 14.877864 -27.290839 
-0.049644 0.541026 0.918230 0.839064 -0.674023 91.517946 16.662705 9.413115 -24.536311 -6.391377 0.862089 38.280773 -3.563294 0.344820 -18.671953 0.000000 -0.000000 0.000000 -15.872301 -13.885205 -27.844025 -1.897876 -10.455372 45.581542 6.768894 -4.535121 -18.687492 0.000000 -0.000000 0.000000 1.445637 0.225166 35.250019 2.721078 -2.024207 -0.806547 2.348414 -1.955543 -3.013073 -3.132296 2.613030 -16.320797 -1.288722 -4.149228 5.224666 -28.669982 -10.838483 5.835310 -48.024803 -11.713445 15.784452 -16.776026 -67.141228 35.285352 8.945341 -17.547345 -18.498605 30.860505 14.086652 5.951589 39.691132 8.657277 5.111431 -22.449246 45.694410 -34.717205 -11.897929 16.525008 -30.487032 
-0.048196 0.537877 0.912925 2.464003 -0.169895 92.938367 16.809565 10.385058 -26.974035 -6.961073 0.235808 38.879204 -3.152256 -0.669411 -18.561480 0.000000 -0.000000 0.000000 -15.125424 -13.919862 -29.239486 -3.036160 -10.989157 46.743288 6.053716 -5.219834 -19.052917 0.000000 -0.000000 0.000000 1.621468 0.393051 32.514039 2.586215 -0.908262 -0.290775 2.212155 -1.418833 -2.289321 -3.849219 3.082555 -15.684924 -0.188454 -3.962976 4.890239 -27.952103 -12.208829 6.166881 -47.896054 -12.598278 14.064246 -18.070411 -68.384917 38.182448 9.920268 -17.477860 -19.924750 30.760629 14.083015 7.424006 40.852304 7.269566 2.868434 -22.700712 46.461379 -32.288090 -12.187689 15.953689 -32.982498 
-0.044931 0.537440 0.914064 5.104199 -1.194388 91.503046 14.921101 9.803228 -26.432940 -7.073518 -1.395321 38.575497 -3.065699 -1.259552 -18.076520 0.000000 -0.000000 0.000000 -16.752933 -14.621796 -26.747482 -3.588527 -10.871915 46.804524 6.784898 -6.125577 -19.199971 0.000000 -0.000000 0.000000 1.859449 1.860290 34.545446 2.360335 -1.629196 0.058503 2.421109 -1.487532 -2.787179 -4.307423 1.951408 -15.211605 0.025437 -3.258000 3.709229 -28.013527 -13.339809 6.190272 -46.524754 -14.327901 15.076202 -14.514116 -69.956967 32.545300 12.379089 -17.002114 -19.331365 30.083027 14.373363 6.745238 41.855594 5.401205 4.247459 -24.219666 46.214617 -36.423692 -12.405909 16.226411 -31.476395 
-0.043183 0.538124 0.912163 7.655970 -1.154782 91.669863 14.753675 9.264071 -27.769965 -7.867590 -1.950248 38.704115 -2.916530 -1.948387 -17.634781 0.000000 -0.000000 0.000000 -16.796684 -14.938897 -26.420536 -4.520297 -11.307481 47.553037 6.742967 -7.147999 -19.566354 0.000000 -0.000000 0.000000 2.521620 2.032848 34.847715 2.127006 -1.456763 -0.507782 2.210720 -1.501794 -2.376580 -4.563130 1.577783 -15.314697 0.519723 -3.470537 3.495559 -27.770421 -13.907149 5.751469 -45.728026 -15.190746 14.468112 -12.799867 -71.055628 30.761923 13.350239 -16.614524 -20.278830 30.003566 14.541582 6.702599 42.057422 4.280708 4.062082 -24.112019 46.302221 -35.740879 -12.149047 16.444163 -31.566531 
-0.041774 0.537488 0.909547 9.310438 -1.261289 92.218642 14.491548 9.594923 -29.175019 -8.553639 -2.216081 39.015098 -3.053451 -2.763661 -17.560404 0.000000 -0.000000 0.000000 -16.729957 -14.884255 -26.791081 -5.424188 -11.421442 48.296346 6.617660 -8.127252 -19.763401 0.000000 -0.000000 0.000000 1.708268 1.962254 33.546155 2.166735 -0.620338 0.355618 2.518858 -0.931380 -2.077599 -4.863128 0.569418 -14.674478 1.129881 -3.448802 2.541452 -28.233140 -14.419833 5.916841 -44.990906 -16.268053 13.845655 -8.713260 -71.996125 25.510670 15.803098 -15.781442 -20.835276 30.043528 14.869066 7.351985 41.556209 3.711050 3.820159 -24.162837 46.736778 -35.757863 -13.201567 15.942492 -31.220789 
-0.039510 0.538369 0.908796 10.780193 -1.521643 92.401532 14.123949 9.168666 -30.021423 -9.048667 -2.255408 39.055163 -3.074297 -3.110832 -17.155470 0.000000 -0.000000 0.000000 -17.025316 -14.871711 -26.630222 -5.904045 -11.442516 48.517634 6.726675 -8.934479 -19.780937 0.000000 -0.000000 0.000000 1.908780 2.311068 34.173135 2.010471 -0.420406 -0.188146 2.489746 -0.935101 -2.016038 -4.778585 -0.250724 -14.754410 1.330700 -4.026836 2.496144 -28.364116 -14.394114 5.985686 -45.015586 -17.164393 13.566702 -3.455638 -72.493915 19.081863 17.163568 -14.972946 -21.503495 29.929581 14.663315 7.070532 40.975194 3.427589 4.180865 -24.590787 47.382790 -35.939648 -12.830394 16.034433 -29.803249 
